<?xml version="1.0" encoding="utf-8"?>
<svg version="1.1" xmlns:cc="http://creativecommons.org/ns#" xmlns:dc="http://purl.org/dc/elements/1.1/" xmlns:rdf="http://www.w3.org/1999/02/22-rdf-syntax-ns#" xmlns="http://www.w3.org/2000/svg" xmlns:xlink="http://www.w3.org/1999/xlink" x="0px" y="0px" viewBox="0 0 1024 768" xml:space="preserve">
<rect fill="#ef4d38" width="1024" height="768" />

 
 <g id="logo-group" stroke-width="0" stroke-miterlimit="2" transform="translate(0 5.6843e-14) scale(1)">
  <path id="path17823" style="font-variant-ligatures:normal" d="m186.54 351.58v-41.328h50.736v-3.36h-84v0.84c8.4 0 15.12 6.72 15.12 14.952v101.64h18.144v-69.384h44.352v-3.36z" fill="#f4f1de"/>
  <path id="path17825" style="font-variant-ligatures:normal" d="m337.13 351.74v0.168h18.144v-10.92h-18.144v5.88c-5.376-4.368-12.432-7.224-21.672-7.224-20.496 0-39.312 19.32-39.312 43.008 0 23.856 14.448 43.008 34.776 43.008 11.424 0 19.992-9.744 26.208-19.992v18.648h18.144v-57.12c0-6.552-5.208-11.76-11.76-11.76h-6.384v46.536c-5.04 7.224-12.096 11.76-20.832 11.76-14.448 0-23.016-10.584-23.016-33.432 0-23.352 9.744-36.456 24.192-36.456 8.4 0 14.952 3.024 19.656 7.896z" fill="#e2ebd8"/>
  <path id="path17827" style="font-variant-ligatures:normal" d="m459.13 339.65c-10.92 0-17.64 6.048-20.496 12.264v-10.92h-33.264v0.84c8.4 0 15.12 6.72 15.12 15.12v67.368h18.144v-63.672c0.336-2.184 2.856-15.12 12.768-15.12 7.896 0 15.792 12.432 7.392 24.528 0 0 16.632 0 16.632-15.12 0-14.952-16.296-15.288-16.296-15.288z" fill="#d1e6d2"/>
  <path id="path17829" style="font-variant-ligatures:normal" d="m602.79 424.32v-117.43h-33.264v0.84c8.4 0 15.12 6.72 15.12 14.952v24.024c-5.376-4.2-12.432-7.056-21.672-7.056-20.496 0-39.312 19.32-39.312 43.008 0 23.856 14.448 43.008 34.776 43.008 11.424 0 19.992-9.744 26.208-19.992v18.648zm-61.992-44.016c0-23.52 9.744-36.624 24.192-36.624 8.4 0 14.952 3.024 19.656 8.064v50.232c-5.04 7.224-12.096 11.76-20.832 11.76-14.448 0-23.016-10.752-23.016-33.432z" fill="#bfe0cc"/>
  <path id="path17831" style="font-variant-ligatures:normal" d="m702.43 339.65c-24.696 0-44.688 19.32-44.688 43.008 0 23.856 19.992 43.008 44.688 43.008s44.688-19.152 44.688-43.008c0-23.688-19.992-43.008-44.688-43.008zm-26.376 43.008c0-21.504 11.76-38.976 26.376-38.976s26.376 17.472 26.376 38.976-11.76 38.976-26.376 38.976-26.376-17.472-26.376-38.976z" fill="#aedbc6"/>
  <path id="path17833" style="font-variant-ligatures:normal" d="m800.33 356.95-7.224-15.96h-10.416v0.84c8.4 0 21.504 23.52 17.64 15.12zm-7.224-15.96 38.808 84.672-14.784 35.448h3.528l50.064-120.12h-3.36l-26.712 64.008-23.184-50.736c-3.696-8.232-11.76-13.272-20.832-13.272z" fill="#9cd5c0"/>
 </g>

</svg>