<?xml version="1.0" encoding="utf-8"?>
<svg version="1.1" xmlns:cc="http://creativecommons.org/ns#" xmlns:dc="http://purl.org/dc/elements/1.1/" xmlns:rdf="http://www.w3.org/1999/02/22-rdf-syntax-ns#" xmlns="http://www.w3.org/2000/svg" xmlns:xlink="http://www.w3.org/1999/xlink" x="0px" y="0px" viewBox="140 295 750 160" xml:space="preserve">

<path fill="#ef4d38" d="m153.27 306.89v0.83985c8.4 0 15.119 6.7192 15.119 14.951v101.64h18.145v-69.385h44.352v-3.3594h-44.352v-41.328h50.736v-3.3594zm416.25 0v0.83985c8.4 0 15.119 6.7192 15.119 14.951v24.023c-5.376-4.2-12.432-7.0547-21.672-7.0547-20.496 0-39.312 19.32-39.312 43.008 0 23.856 14.449 43.008 34.777 43.008 11.424 0 19.991-9.7442 26.207-19.992v18.648h18.145v-117.43zm-254.07 32.76c-20.496 0-39.312 19.32-39.312 43.008 0 23.856 14.449 43.008 34.777 43.008 11.424 0 19.991-9.7442 26.207-19.992v18.648h18.145v-57.121c0-6.552-5.2078-11.76-11.76-11.76h-6.3848v46.537c-5.04 7.224-12.096 11.76-20.832 11.76-14.448 0-23.016-10.584-23.016-33.432 0-23.352 9.7434-36.457 24.191-36.457 8.4 0 14.952 3.0245 19.656 7.8965v0.16797h18.145v-10.93h-18.13v5.8789c-5.376-4.368-12.432-7.2226-21.672-7.2226zm143.67 0c-10.92 0-17.64 6.0477-20.496 12.264v-10.92h-33.264v0.83984c8.4 0 15.119 6.7192 15.119 15.119v67.369h18.145v-63.672c0.336-2.184 2.8556-15.121 12.768-15.121 7.896 0 15.793 12.433 7.3926 24.529 0 0 16.631-0.001 16.631-15.121 0-14.952-16.295-15.287-16.295-15.287zm243.31 0c-24.696 0-44.688 19.32-44.688 43.008 0 23.856 19.992 43.008 44.688 43.008s44.689-19.152 44.689-43.008c0-23.688-19.993-43.008-44.689-43.008zm80.262 1.3438v0.83984c8.4 0 21.503 23.519 17.639 15.119l-7.2227-15.959zm10.416 0 38.807 84.672-14.783 35.447h3.5274l50.064-120.12h-3.3594l-26.72 64.01-23.18-50.74c-3.696-8.232-11.76-13.271-20.832-13.271zm-228.12 2.6875c8.4 0 14.952 3.0245 19.656 8.0644v50.232c-5.04 7.224-12.096 11.76-20.832 11.76-14.448 0-23.016-10.752-23.016-33.432 0-23.52 9.7434-36.625 24.191-36.625zm137.45 0c14.616 0 26.377 17.473 26.377 38.977s-11.761 38.977-26.377 38.977-26.375-17.473-26.375-38.977 11.759-38.977 26.375-38.977z" />
</svg>